<mxfile host="Electron" modified="2024-06-23T19:10:38.739Z" agent="Mozilla/5.0 (X11; Linux x86_64) AppleWebKit/537.36 (KHTML, like Gecko) draw.io/24.5.3 Chrome/124.0.6367.207 Electron/30.0.6 Safari/537.36" etag="Bv9jz-qAfLne8g4W0lec" version="24.5.3" type="device">
  <diagram name="Page-1" id="g0lKU4RpmK4iZLEfY9Yu">
    <mxGraphModel dx="2212" dy="843" grid="1" gridSize="10" guides="1" tooltips="1" connect="1" arrows="1" fold="1" page="1" pageScale="1" pageWidth="850" pageHeight="1100" math="0" shadow="0">
      <root>
        <mxCell id="0" />
        <mxCell id="1" parent="0" />
        <mxCell id="l8xpw_-DjoMWQQSbP1Vu-11" value="Socat State Machine (see man page)" style="rounded=0;whiteSpace=wrap;html=1;align=left;verticalAlign=top;" vertex="1" parent="1">
          <mxGeometry x="410" y="140" width="380" height="630" as="geometry" />
        </mxCell>
        <mxCell id="l8xpw_-DjoMWQQSbP1Vu-1" value="Socat Notes&lt;div&gt;&lt;br&gt;&lt;/div&gt;&lt;div style=&quot;text-align: left;&quot;&gt;Basic usage: socat &amp;lt;options&amp;gt; &amp;lt;addr&amp;gt; &amp;lt;addr&amp;gt;&lt;/div&gt;&lt;div style=&quot;text-align: left;&quot;&gt;Definition: for basic usage, socat establishes bidirectional comms by creating two unidirectional bytes streams between addrs. Note that addrs are not strictly &#39;src&#39; and &#39;dest&#39; and the communication can be both bidirectional of unidirectional (the -u option).&lt;/div&gt;&lt;div style=&quot;text-align: left;&quot;&gt;1) establishes byte stream from addr1 to addr2&lt;/div&gt;&lt;div style=&quot;text-align: left;&quot;&gt;2) establishes bytes stream from addr2 to addr1&lt;/div&gt;&lt;div style=&quot;text-align: left;&quot;&gt;Semantics vary according to the system concept being implemented: files, sockets, etc.&lt;/div&gt;&lt;div style=&quot;text-align: left;&quot;&gt;&lt;br&gt;&lt;/div&gt;&lt;div style=&quot;text-align: left;&quot;&gt;Dual addressing: socat establishes two unidirectional byte streams by convention (except when using -u for unidirectional schemes). With dual addressing, one can configure the outgoing from addr1 to be separate from the incoming byte stream. The left addr argument then becomes a compound of two addrs separated by &#39;!!&#39;.&lt;/div&gt;&lt;div style=&quot;text-align: left;&quot;&gt;&lt;br&gt;&lt;/div&gt;&lt;div style=&quot;text-align: left;&quot;&gt;&lt;br&gt;&lt;/div&gt;&lt;div style=&quot;text-align: left;&quot;&gt;Examples:&lt;/div&gt;&lt;div style=&quot;text-align: left;&quot;&gt;The &#39;-u&#39; option establishes unidirectional comms where addr1 is readonly and addr2 is write only.&lt;/div&gt;&lt;div style=&quot;text-align: left;&quot;&gt;* socat -u STDIN STDIO&lt;/div&gt;&lt;div style=&quot;text-align: left;&quot;&gt;Dual addressing: here, READLINE src address connects to a system echo process, and from that dest back to the src second address of a local file:&lt;/div&gt;&lt;div style=&quot;text-align: left;&quot;&gt;*&amp;nbsp;&lt;span style=&quot;background-color: initial; text-align: center;&quot;&gt;socat -d -d   READLINE\!\!OPEN:file.txt,creat,trunc   SYSTEM:&#39;read stdin; echo $stdin&#39;&lt;/span&gt;&lt;/div&gt;&lt;div style=&quot;text-align: left;&quot;&gt;&lt;span style=&quot;background-color: initial; text-align: center;&quot;&gt;&lt;br&gt;&lt;/span&gt;&lt;/div&gt;&lt;div style=&quot;text-align: left;&quot;&gt;&lt;span style=&quot;background-color: initial; text-align: center;&quot;&gt;TODO: watch this:&amp;nbsp;&lt;/span&gt;&lt;span style=&quot;background-color: initial; text-align: center;&quot;&gt;https://www.youtube.com/watch?v=euHEFCGRwHY&amp;amp;t=939s&lt;/span&gt;&lt;/div&gt;" style="rounded=0;whiteSpace=wrap;html=1;" vertex="1" parent="1">
          <mxGeometry x="-440" y="101" width="520" height="530" as="geometry" />
        </mxCell>
        <mxCell id="l8xpw_-DjoMWQQSbP1Vu-6" style="edgeStyle=orthogonalEdgeStyle;rounded=0;orthogonalLoop=1;jettySize=auto;html=1;" edge="1" parent="1" source="l8xpw_-DjoMWQQSbP1Vu-2" target="l8xpw_-DjoMWQQSbP1Vu-3">
          <mxGeometry relative="1" as="geometry" />
        </mxCell>
        <mxCell id="l8xpw_-DjoMWQQSbP1Vu-2" value="Init&lt;div&gt;- Parse command line options&lt;/div&gt;&lt;div&gt;- init logging&lt;/div&gt;" style="rounded=1;whiteSpace=wrap;html=1;" vertex="1" parent="1">
          <mxGeometry x="520" y="180" width="240" height="90" as="geometry" />
        </mxCell>
        <mxCell id="l8xpw_-DjoMWQQSbP1Vu-7" style="edgeStyle=orthogonalEdgeStyle;rounded=0;orthogonalLoop=1;jettySize=auto;html=1;entryX=0.5;entryY=0;entryDx=0;entryDy=0;" edge="1" parent="1" source="l8xpw_-DjoMWQQSbP1Vu-3" target="l8xpw_-DjoMWQQSbP1Vu-4">
          <mxGeometry relative="1" as="geometry" />
        </mxCell>
        <mxCell id="l8xpw_-DjoMWQQSbP1Vu-3" value="Open&lt;div&gt;- open first addr&lt;/div&gt;&lt;div&gt;- open second addr&lt;/div&gt;" style="rounded=1;whiteSpace=wrap;html=1;" vertex="1" parent="1">
          <mxGeometry x="520" y="300" width="240" height="90" as="geometry" />
        </mxCell>
        <mxCell id="l8xpw_-DjoMWQQSbP1Vu-8" style="edgeStyle=orthogonalEdgeStyle;rounded=0;orthogonalLoop=1;jettySize=auto;html=1;entryX=0.5;entryY=0;entryDx=0;entryDy=0;" edge="1" parent="1" source="l8xpw_-DjoMWQQSbP1Vu-4" target="l8xpw_-DjoMWQQSbP1Vu-5">
          <mxGeometry relative="1" as="geometry" />
        </mxCell>
        <mxCell id="l8xpw_-DjoMWQQSbP1Vu-4" value="Transfer&lt;div&gt;- watch addrs using select&lt;/div&gt;&lt;div&gt;- call read/write to link byte streams&lt;/div&gt;" style="rounded=1;whiteSpace=wrap;html=1;" vertex="1" parent="1">
          <mxGeometry x="520" y="420" width="240" height="90" as="geometry" />
        </mxCell>
        <mxCell id="l8xpw_-DjoMWQQSbP1Vu-10" style="edgeStyle=orthogonalEdgeStyle;rounded=0;orthogonalLoop=1;jettySize=auto;html=1;" edge="1" parent="1" source="l8xpw_-DjoMWQQSbP1Vu-5" target="l8xpw_-DjoMWQQSbP1Vu-9">
          <mxGeometry relative="1" as="geometry" />
        </mxCell>
        <mxCell id="l8xpw_-DjoMWQQSbP1Vu-5" value="Shutdown&lt;div&gt;- EOF received from any addr&lt;/div&gt;&lt;div&gt;- close addrs&lt;/div&gt;" style="rounded=1;whiteSpace=wrap;html=1;" vertex="1" parent="1">
          <mxGeometry x="520" y="540" width="240" height="90" as="geometry" />
        </mxCell>
        <mxCell id="l8xpw_-DjoMWQQSbP1Vu-9" value="Exit codes&lt;div&gt;- ??? appears these are undefined&lt;/div&gt;" style="rounded=1;whiteSpace=wrap;html=1;" vertex="1" parent="1">
          <mxGeometry x="520" y="660" width="240" height="90" as="geometry" />
        </mxCell>
        <mxCell id="l8xpw_-DjoMWQQSbP1Vu-13" value="soc&lt;span style=&quot;color: rgba(0, 0, 0, 0); font-family: monospace; font-size: 0px; text-align: start; text-wrap: nowrap;&quot;&gt;%3CmxGraphModel%3E%3Croot%3E%3CmxCell%20id%3D%220%22%2F%3E%3CmxCell%20id%3D%221%22%20parent%3D%220%22%2F%3E%3CmxCell%20id%3D%222%22%20value%3D%22Socat%20Notes%22%20style%3D%22rounded%3D0%3BwhiteSpace%3Dwrap%3Bhtml%3D1%3B%22%20vertex%3D%221%22%20parent%3D%221%22%3E%3CmxGeometry%20x%3D%2240%22%20y%3D%2240%22%20width%3D%22240%22%20height%3D%22320%22%20as%3D%22geometry%22%2F%3E%3C%2FmxCell%3E%3C%2Froot%3E%3C%2FmxGraphModel%3E&lt;/span&gt;at" style="rounded=0;whiteSpace=wrap;html=1;" vertex="1" parent="1">
          <mxGeometry x="-610" y="770" width="120" height="60" as="geometry" />
        </mxCell>
        <mxCell id="l8xpw_-DjoMWQQSbP1Vu-14" value="&lt;span style=&quot;color: rgba(0, 0, 0, 0); font-family: monospace; font-size: 0px; text-align: start; text-wrap: nowrap;&quot;&gt;%3CmxGraphModel%3E%3Croot%3E%3CmxCell%20id%3D%220%22%2F%3E%3CmxCell%20id%3D%221%22%20parent%3D%220%22%2F%3E%3CmxCell%20id%3D%222%22%20value%3D%22soc%26lt%3Bspan%20style%3D%26quot%3Bcolor%3A%20rgba(0%2C%200%2C%200%2C%200)%3B%20font-family%3A%20monospace%3B%20font-size%3A%200px%3B%20text-align%3A%20start%3B%20text-wrap%3A%20nowrap%3B%26quot%3B%26gt%3B%253CmxGraphModel%253E%253Croot%253E%253CmxCell%2520id%253D%25220%2522%252F%253E%253CmxCell%2520id%253D%25221%2522%2520parent%253D%25220%2522%252F%253E%253CmxCell%2520id%253D%25222%2522%2520value%253D%2522Socat%2520Notes%2522%2520style%253D%2522rounded%253D0%253BwhiteSpace%253Dwrap%253Bhtml%253D1%253B%2522%2520vertex%253D%25221%2522%2520parent%253D%25221%2522%253E%253CmxGeometry%2520x%253D%252240%2522%2520y%253D%252240%2522%2520width%253D%2522240%2522%2520height%253D%2522320%2522%2520as%253D%2522geometry%2522%252F%253E%253C%252FmxCell%253E%253C%252Froot%253E%253C%252FmxGraphModel%253E%26lt%3B%2Fspan%26gt%3Bat%22%20style%3D%22rounded%3D0%3BwhiteSpace%3Dwrap%3Bhtml%3D1%3B%22%20vertex%3D%221%22%20parent%3D%221%22%3E%3CmxGeometry%20x%3D%22-610%22%20y%3D%22770%22%20width%3D%22120%22%20height%3D%2260%22%20as%3D%22geometry%22%2F%3E%3C%2FmxCell%3E%3C%2Froot%3E%3C%2FmxGraphModel%3E&lt;/span&gt;&lt;span style=&quot;color: rgba(0, 0, 0, 0); font-family: monospace; font-size: 0px; text-align: start; text-wrap: nowrap;&quot;&gt;%3CmxGraphModel%3E%3Croot%3E%3CmxCell%20id%3D%220%22%2F%3E%3CmxCell%20id%3D%221%22%20parent%3D%220%22%2F%3E%3CmxCell%20id%3D%222%22%20value%3D%22soc%26lt%3Bspan%20style%3D%26quot%3Bcolor%3A%20rgba(0%2C%200%2C%200%2C%200)%3B%20font-family%3A%20monospace%3B%20font-size%3A%200px%3B%20text-align%3A%20start%3B%20text-wrap%3A%20nowrap%3B%26quot%3B%26gt%3B%253CmxGraphModel%253E%253Croot%253E%253CmxCell%2520id%253D%25220%2522%252F%253E%253CmxCell%2520id%253D%25221%2522%2520parent%253D%25220%2522%252F%253E%253CmxCell%2520id%253D%25222%2522%2520value%253D%2522Socat%2520Notes%2522%2520style%253D%2522rounded%253D0%253BwhiteSpace%253Dwrap%253Bhtml%253D1%253B%2522%2520vertex%253D%25221%2522%2520parent%253D%25221%2522%253E%253CmxGeometry%2520x%253D%252240%2522%2520y%253D%252240%2522%2520width%253D%2522240%2522%2520height%253D%2522320%2522%2520as%253D%2522geometry%2522%252F%253E%253C%252FmxCell%253E%253C%252Froot%253E%253C%252FmxGraphModel%253E%26lt%3B%2Fspan%26gt%3Bat%22%20style%3D%22rounded%3D0%3BwhiteSpace%3Dwrap%3Bhtml%3D1%3B%22%20vertex%3D%221%22%20parent%3D%221%22%3E%3CmxGeometry%20x%3D%22-610%22%20y%3D%22770%22%20width%3D%22120%22%20height%3D%2260%22%20as%3D%22geometry%22%2F%3E%3C%2FmxCell%3E%3C%2Froot%3E%3C%2FmxGraphModel%3E&lt;/span&gt;options" style="rounded=0;whiteSpace=wrap;html=1;" vertex="1" parent="1">
          <mxGeometry x="-470" y="770" width="120" height="60" as="geometry" />
        </mxCell>
        <mxCell id="l8xpw_-DjoMWQQSbP1Vu-15" value="addr spec&lt;div&gt;TYPE:PARAMS:optA,optB=123&lt;/div&gt;" style="rounded=0;whiteSpace=wrap;html=1;" vertex="1" parent="1">
          <mxGeometry x="-325" y="770" width="225" height="60" as="geometry" />
        </mxCell>
        <mxCell id="l8xpw_-DjoMWQQSbP1Vu-18" value="addr spec&lt;div&gt;TYPE:PARAMS:optA,optB,optC&lt;/div&gt;" style="rounded=0;whiteSpace=wrap;html=1;" vertex="1" parent="1">
          <mxGeometry x="-75" y="770" width="225" height="60" as="geometry" />
        </mxCell>
        <mxCell id="l8xpw_-DjoMWQQSbP1Vu-20" value="soc&lt;span style=&quot;color: rgba(0, 0, 0, 0); font-family: monospace; font-size: 0px; text-align: start; text-wrap: nowrap;&quot;&gt;%3CmxGraphModel%3E%3Croot%3E%3CmxCell%20id%3D%220%22%2F%3E%3CmxCell%20id%3D%221%22%20parent%3D%220%22%2F%3E%3CmxCell%20id%3D%222%22%20value%3D%22Socat%20Notes%22%20style%3D%22rounded%3D0%3BwhiteSpace%3Dwrap%3Bhtml%3D1%3B%22%20vertex%3D%221%22%20parent%3D%221%22%3E%3CmxGeometry%20x%3D%2240%22%20y%3D%2240%22%20width%3D%22240%22%20height%3D%22320%22%20as%3D%22geometry%22%2F%3E%3C%2FmxCell%3E%3C%2Froot%3E%3C%2FmxGraphModel%3E&lt;/span&gt;at" style="rounded=0;whiteSpace=wrap;html=1;" vertex="1" parent="1">
          <mxGeometry x="-610" y="860" width="120" height="60" as="geometry" />
        </mxCell>
        <mxCell id="l8xpw_-DjoMWQQSbP1Vu-21" value="&lt;span style=&quot;color: rgba(0, 0, 0, 0); font-family: monospace; font-size: 0px; text-align: start; text-wrap: nowrap;&quot;&gt;%3CmxGraphModel%3E%3Croot%3E%3CmxCell%20id%3D%220%22%2F%3E%3CmxCell%20id%3D%221%22%20parent%3D%220%22%2F%3E%3CmxCell%20id%3D%222%22%20value%3D%22soc%26lt%3Bspan%20style%3D%26quot%3Bcolor%3A%20rgba(0%2C%200%2C%200%2C%200)%3B%20font-family%3A%20monospace%3B%20font-size%3A%200px%3B%20text-align%3A%20start%3B%20text-wrap%3A%20nowrap%3B%26quot%3B%26gt%3B%253CmxGraphModel%253E%253Croot%253E%253CmxCell%2520id%253D%25220%2522%252F%253E%253CmxCell%2520id%253D%25221%2522%2520parent%253D%25220%2522%252F%253E%253CmxCell%2520id%253D%25222%2522%2520value%253D%2522Socat%2520Notes%2522%2520style%253D%2522rounded%253D0%253BwhiteSpace%253Dwrap%253Bhtml%253D1%253B%2522%2520vertex%253D%25221%2522%2520parent%253D%25221%2522%253E%253CmxGeometry%2520x%253D%252240%2522%2520y%253D%252240%2522%2520width%253D%2522240%2522%2520height%253D%2522320%2522%2520as%253D%2522geometry%2522%252F%253E%253C%252FmxCell%253E%253C%252Froot%253E%253C%252FmxGraphModel%253E%26lt%3B%2Fspan%26gt%3Bat%22%20style%3D%22rounded%3D0%3BwhiteSpace%3Dwrap%3Bhtml%3D1%3B%22%20vertex%3D%221%22%20parent%3D%221%22%3E%3CmxGeometry%20x%3D%22-610%22%20y%3D%22770%22%20width%3D%22120%22%20height%3D%2260%22%20as%3D%22geometry%22%2F%3E%3C%2FmxCell%3E%3C%2Froot%3E%3C%2FmxGraphModel%3E&lt;/span&gt;&lt;span style=&quot;color: rgba(0, 0, 0, 0); font-family: monospace; font-size: 0px; text-align: start; text-wrap: nowrap;&quot;&gt;%3CmxGraphModel%3E%3Croot%3E%3CmxCell%20id%3D%220%22%2F%3E%3CmxCell%20id%3D%221%22%20parent%3D%220%22%2F%3E%3CmxCell%20id%3D%222%22%20value%3D%22soc%26lt%3Bspan%20style%3D%26quot%3Bcolor%3A%20rgba(0%2C%200%2C%200%2C%200)%3B%20font-family%3A%20monospace%3B%20font-size%3A%200px%3B%20text-align%3A%20start%3B%20text-wrap%3A%20nowrap%3B%26quot%3B%26gt%3B%253CmxGraphModel%253E%253Croot%253E%253CmxCell%2520id%253D%25220%2522%252F%253E%253CmxCell%2520id%253D%25221%2522%2520parent%253D%25220%2522%252F%253E%253CmxCell%2520id%253D%25222%2522%2520value%253D%2522Socat%2520Notes%2522%2520style%253D%2522rounded%253D0%253BwhiteSpace%253Dwrap%253Bhtml%253D1%253B%2522%2520vertex%253D%25221%2522%2520parent%253D%25221%2522%253E%253CmxGeometry%2520x%253D%252240%2522%2520y%253D%252240%2522%2520width%253D%2522240%2522%2520height%253D%2522320%2522%2520as%253D%2522geometry%2522%252F%253E%253C%252FmxCell%253E%253C%252Froot%253E%253C%252FmxGraphModel%253E%26lt%3B%2Fspan%26gt%3Bat%22%20style%3D%22rounded%3D0%3BwhiteSpace%3Dwrap%3Bhtml%3D1%3B%22%20vertex%3D%221%22%20parent%3D%221%22%3E%3CmxGeometry%20x%3D%22-610%22%20y%3D%22770%22%20width%3D%22120%22%20height%3D%2260%22%20as%3D%22geometry%22%2F%3E%3C%2FmxCell%3E%3C%2Froot%3E%3C%2FmxGraphModel%3E&lt;/span&gt;options" style="rounded=0;whiteSpace=wrap;html=1;" vertex="1" parent="1">
          <mxGeometry x="-470" y="860" width="120" height="60" as="geometry" />
        </mxCell>
        <mxCell id="l8xpw_-DjoMWQQSbP1Vu-22" value="dual addr spec&lt;div&gt;TYPE:PARAMS:optA,optB,optC!!&lt;span style=&quot;background-color: initial;&quot;&gt;TYPE:PARAMS:optA,optB,optC&lt;/span&gt;&lt;/div&gt;" style="rounded=0;whiteSpace=wrap;html=1;" vertex="1" parent="1">
          <mxGeometry x="-325" y="860" width="475" height="60" as="geometry" />
        </mxCell>
        <mxCell id="l8xpw_-DjoMWQQSbP1Vu-23" value="addr spec&lt;div&gt;TYPE:PARAMS:optA,optB,optC&lt;/div&gt;" style="rounded=0;whiteSpace=wrap;html=1;" vertex="1" parent="1">
          <mxGeometry x="170" y="860" width="225" height="60" as="geometry" />
        </mxCell>
      </root>
    </mxGraphModel>
  </diagram>
</mxfile>
